PathFileType	4	(X/Y/Z)	RBDS014static.trc
DataRate	CameraRate	NumFrames	NumMarkers	Units	OrigDataRate	OrigDataStartFrame	OrigNumFrames
150.000000	150.000000	4	48	mm	150.000000	75	150
Frame#	Time	L.Ankle			L.Ankle.Medial			L.ASIS			L.GTR			L.Heel.Bottom			L.Heel.Lateral			L.Heel.Top			L.HF			L.Iliac.Crest			L.Knee			L.Knee.Medial			L.MT1			L.MT2			L.MT5			L.PSIS			L.Shank.Bottom.Lateral			L.Shank.Bottom.Medial			L.Shank.Top.Lateral			L.Shank.Top.Medial			L.Thigh.Bottom.Lateral			L.Thigh.Bottom.Medial			L.Thigh.Top.Lateral			L.Thigh.Top.Medial			L.TT			R.Ankle			R.Ankle.Medial			R.ASIS			R.GTR			R.Heel.Bottom			R.Heel.Lateral			R.Heel.Top			R.HF			R.Iliac.Crest			R.Knee			R.Knee.Medial			R.MT1			R.MT2			R.MT5			R.PSIS			R.Shank.Bottom.Lateral			R.Shank.Bottom.Medial			R.Shank.Top.Lateral			R.Shank.Top.Medial			R.Thigh.Bottom.Lateral			R.Thigh.Bottom.Medial			R.Thigh.Top.Lateral			R.Thigh.Top.Medial			R.TT			
		X1	Y1	Z1	X2	Y2	Z2	X3	Y3	Z3	X4	Y4	Z4	X5	Y5	Z5	X6	Y6	Z6	X7	Y7	Z7	X8	Y8	Z8	X9	Y9	Z9	X10	Y10	Z10	X11	Y11	Z11	X12	Y12	Z12	X13	Y13	Z13	X14	Y14	Z14	X15	Y15	Z15	X16	Y16	Z16	X17	Y17	Z17	X18	Y18	Z18	X19	Y19	Z19	X20	Y20	Z20	X21	Y21	Z21	X22	Y22	Z22	X23	Y23	Z23	X24	Y24	Z24	X25	Y25	Z25	X26	Y26	Z26	X27	Y27	Z27	X28	Y28	Z28	X29	Y29	Z29	X30	Y30	Z30	X31	Y31	Z31	X32	Y32	Z32	X33	Y33	Z33	X34	Y34	Z34	X35	Y35	Z35	X36	Y36	Z36	X37	Y37	Z37	X38	Y38	Z38	X39	Y39	Z39	X40	Y40	Z40	X41	Y41	Z41	X42	Y42	Z42	X43	Y43	Z43	X44	Y44	Z44	X45	Y45	Z45	X46	Y46	Z46	X47	Y47	Z47	X48	Y48	Z48	

76	0.5	714.9833374023438	108.1679763793945	1042.291137695313	740.4754638671875	118.7796173095703	1127.948486328125	858.6201782226563	1133.754028320313	1110.396728515625	778.3279418945313	1022.687133789063	1053.305908203125	643.4325561523438	41.5741081237793	1085.3359375	665.9308471679688	65.31201934814453	1045.090087890625	653.0099487304688	92.23784637451172	1087.216064453125	777.9178466796875	523.6395874023438	1039.482177734375	781.188232421875	1192.00927734375	1070.0908203125	787.0560913085938	596.5910034179688	1050.242919921875	781.5040893554688	576.4757690429688	1173.4814453125	876.8278198242188	57.78936767578125	1132.562133789063	886.6416015625	69.28170013427734	1088.675170898438	840.1337890625	51.17412567138672	1013.353637695313	677.223876953125	1149.8408203125	1184.358520507813	725.89697265625	207.8169555664063	1031.465454101563	682.831298828125	210.6844177246094	1066.193725585938	722.3196411132813	287.779296875	1021.515441894531	681.0801391601563	291.2668151855469	1055.951538085938	782.2101440429688	753.6585693359375	1030.885498046875	720.955322265625	748.0924072265625	1069.530029296875	767.1137084960938	863.424072265625	1028.918090820313	711.9619750976563	858.3024291992188	1069.093872070313	831.760009765625	494.304443359375	1097.256591796875	721.0380249023438	108.2779846191406	1417.60693359375	748.328369140625	126.1896133422852	1332.436157226563	860.8487548828125	1142.610107421875	1356.808837890625	796.5068359375	1032.388427734375	1412.010375976563	646.187744140625	43.12609100341797	1374.206909179688	669.6310424804688	66.46044158935547	1412.274169921875	655.0135498046875	95.11289978027344	1371.734741210938	786.9599609375	535.4097900390625	1420.649047851563	797.415283203125	1208.680908203125	1382.119140625	790.3778076171875	606.27978515625	1411.82763671875	787.271728515625	582.419189453125	1287.406127929688	879.3958129882813	58.65128326416016	1326.96044921875	890.1747436523438	72.50131988525391	1371.490844726563	846.986083984375	51.70849227905273	1448.45361328125	685.24609375	1158.599487304688	1278.475830078125	714.060302734375	208.4810333251953	1422.744384765625	684.2577514648438	215.8831939697266	1381.765380859375	715.0643920898438	292.6368103027344	1434.9755859375	682.9356079101563	296.0277099609375	1392.801635742188	809.4837036132813	736.2845458984375	1428.801147460938	741.0560913085938	733.0445556640625	1403.190185546875	798.9163208007813	845.0745239257813	1436.2294921875	734.2434692382813	842.71875	1409.88330078125	837.6229248046875	500.0354309082031	1358.45654296875	
77	0.5066666666666667	714.9794311523438	108.1584091186523	1042.288330078125	740.4708251953125	118.7807693481445	1127.946411132813	858.5670776367188	1133.7646484375	1110.403076171875	778.2980346679688	1022.685852050781	1053.30419921875	643.4293823242188	41.57517242431641	1085.339721679688	665.9335327148438	65.30914306640625	1045.091186523438	653.0108032226563	92.23259735107422	1087.220336914063	777.895263671875	523.652587890625	1039.479858398438	781.16015625	1192.0107421875	1070.098266601563	787.0199584960938	596.59033203125	1050.24462890625	781.4863891601563	576.4678344726563	1173.486938476563	876.83056640625	57.79294204711914	1132.56005859375	886.634521484375	69.28314971923828	1088.678588867188	840.1309814453125	51.17426681518555	1013.356628417969	677.1851806640625	1149.846069335938	1184.3623046875	725.8856201171875	207.8102264404297	1031.471313476563	682.8182983398438	210.6755523681641	1066.200805664063	722.2996215820313	287.7796936035156	1021.530700683594	681.061767578125	291.2650451660156	1055.962158203125	782.1993408203125	753.6654052734375	1030.876098632813	720.942626953125	748.0852661132813	1069.528930664063	767.0844116210938	863.3698120117188	1028.821166992188	711.941162109375	858.2966918945313	1069.091674804688	831.7411499023438	494.3141479492188	1097.258666992188	721.0399780273438	108.2758331298828	1417.607421875	748.3328247070313	126.1775588989258	1332.437744140625	860.8092041015625	1142.611450195313	1356.809814453125	796.4703369140625	1032.390258789063	1412.0205078125	646.18212890625	43.12512969970703	1374.198974609375	669.6343383789063	66.45626831054688	1412.258178710938	655.0093994140625	95.09935760498047	1371.734008789063	786.9459228515625	535.4072875976563	1420.649169921875	797.3760986328125	1208.697998046875	1382.127807617188	790.3612670898438	606.2805786132813	1411.821533203125	787.2581787109375	582.4136352539063	1287.40478515625	879.3902587890625	58.65749740600586	1326.94970703125	890.1763305664063	72.50088500976563	1371.485473632813	846.9931030273438	51.70846557617188	1448.455444335938	685.21044921875	1158.603881835938	1278.475708007813	714.060546875	208.4738464355469	1422.7470703125	684.2460327148438	215.8838500976563	1381.76513671875	715.0618286132813	292.6318054199219	1434.970703125	682.9230346679688	296.0265502929688	1392.79833984375	809.4611206054688	736.2840576171875	1428.806762695313	741.0272827148438	733.0399169921875	1403.201782226563	798.8876953125	845.0693969726563	1436.234741210938	734.216064453125	842.7177124023438	1409.88623046875	837.6055908203125	500.0452880859375	1358.448852539063	
78	0.5133333333333334	714.98046875	108.1598587036133	1042.297973632813	740.4732055664063	118.7719650268555	1127.951416015625	858.5343017578125	1133.773559570313	1110.40673828125	778.2488403320313	1022.68798828125	1053.31103515625	643.4359741210938	41.56779861450195	1085.337158203125	665.9347534179688	65.31182098388672	1045.091918945313	653.0070190429688	92.23805236816406	1087.223022460938	777.8616943359375	523.64111328125	1039.48779296875	781.118408203125	1192.0146484375	1070.099975585938	786.9857788085938	596.5999145507813	1050.254028320313	781.4549560546875	576.4752197265625	1173.487426757813	876.828369140625	57.79117965698242	1132.564208984375	886.6345825195313	69.27606964111328	1088.677734375	840.1295166015625	51.17187881469727	1013.361145019531	677.1567993164063	1149.83837890625	1184.373779296875	725.8738403320313	207.8173217773438	1031.468383789063	682.8099975585938	210.6732330322266	1066.207397460938	722.291259765625	287.7781677246094	1021.532592773438	681.0482788085938	291.2550964355469	1055.962524414063	782.172607421875	753.6582641601563	1030.883422851563	720.9173583984375	748.0936889648438	1069.536254882813	767.07421875	863.4180297851563	1028.93310546875	711.9129028320313	858.3023681640625	1069.080322265625	831.7076416015625	494.3194274902344	1097.2666015625	721.0377197265625	108.2795257568359	1417.605102539063	748.3259887695313	126.1760864257813	1332.433349609375	860.7728271484375	1142.61376953125	1356.818115234375	796.4409790039063	1032.384521484375	1412.009521484375	646.1929321289063	43.11273956298828	1374.209716796875	669.6344604492188	66.46185302734375	1412.267456054688	655.009765625	95.10149383544922	1371.731079101563	786.9281616210938	535.4103393554688	1420.66064453125	797.3269653320313	1208.703491210938	1382.140380859375	790.3407592773438	606.2784423828125	1411.825439453125	787.2373657226563	582.399658203125	1287.409545898438	879.3943481445313	58.641845703125	1326.966796875	890.1762084960938	72.50263977050781	1371.484619140625	846.9903564453125	51.70772933959961	1448.448364257813	685.18408203125	1158.59033203125	1278.466918945313	714.0617065429688	208.4768524169922	1422.75439453125	684.2462158203125	215.8733215332031	1381.758544921875	715.0608520507813	292.6329956054688	1434.970825195313	682.9225463867188	296.0237121582031	1392.803833007813	809.4356079101563	736.2808227539063	1428.80029296875	741.001220703125	733.0296630859375	1403.1962890625	798.8538818359375	845.0794067382813	1436.237915039063	734.177978515625	842.7234497070313	1409.894653320313	837.6002197265625	500.045166015625	1358.4453125	
79	0.52	714.9782104492188	108.1556396484375	1042.295532226563	740.4678344726563	118.7673873901367	1127.952514648438	858.4799194335938	1133.772216796875	1110.405639648438	778.2252197265625	1022.69189453125	1053.310913085938	643.4345703125	41.56827926635742	1085.330444335938	665.928955078125	65.30480194091797	1045.092407226563	653.0072631835938	92.22607421875	1087.226806640625	777.8306274414063	523.6466674804688	1039.489501953125	781.0756225585938	1192.015014648438	1070.116455078125	786.964599609375	596.5966796875	1050.261840820313	781.4089965820313	576.4735107421875	1173.496337890625	876.8282470703125	57.79269409179688	1132.565307617188	886.637451171875	69.28717803955078	1088.677612304688	840.132568359375	51.17801284790039	1013.361267089844	677.1210327148438	1149.842041015625	1184.387817382813	725.87158203125	207.8132934570313	1031.478881835938	682.8046875	210.6649169921875	1066.208618164063	722.2766723632813	287.7732543945313	1021.5341796875	681.0333862304688	291.2479858398438	1055.9755859375	782.15673828125	753.65185546875	1030.886352539063	720.8980712890625	748.0820922851563	1069.532104492188	767.0529174804688	863.4194946289063	1028.923217773438	711.8833618164063	858.300048828125	1069.087158203125	831.6961669921875	494.320068359375	1097.276000976563	721.0396728515625	108.2760314941406	1417.601684570313	748.3162231445313	126.1823120117188	1332.4326171875	860.7360229492188	1142.611328125	1356.81640625	796.4066162109375	1032.38525390625	1412.014282226563	646.1884155273438	43.11623001098633	1374.201904296875	669.6307373046875	66.45555114746094	1412.256225585938	655.0161743164063	95.10482788085938	1371.729370117188	786.93408203125	535.4060668945313	1420.64453125	797.2813720703125	1208.702514648438	1382.125610351563	790.328857421875	606.2752685546875	1411.82080078125	787.2303466796875	582.4012451171875	1287.410400390625	879.3967895507813	58.65563583374023	1326.95458984375	890.1812744140625	72.49520111083984	1371.486083984375	846.9920654296875	51.70861434936523	1448.452758789063	685.1490478515625	1158.58154296875	1278.474609375	714.0589599609375	208.4694519042969	1422.747802734375	684.2474975585938	215.8726654052734	1381.770141601563	715.0538330078125	292.6222534179688	1434.96240234375	682.9110107421875	296.0176086425781	1392.785278320313	809.40673828125	736.2837524414063	1428.797729492188	740.9729614257813	733.0418090820313	1403.192016601563	798.8236694335938	845.0810546875	1436.234985351563	734.1524658203125	842.7100219726563	1409.873046875	837.5844116210938	500.0521240234375	1358.42578125	
